<svg t="1743406201130" class="icon" viewBox="0 0 1024 1024" version="1.1" xmlns="http://www.w3.org/2000/svg" p-id="1064" width="48" height="48"><path d="M745.36 373.31c-10.38 0-19.36-7.34-22.88-18.69-32.37-104.38-117.1-130.23-165.85-136.27 0.05 0.2 0.1 0.39 0.14 0.59 4.26 20.24 5.51 29.92 2.79 59.03-1.21 12.93-11.9 22.67-24.87 22.67-0.77 0-1.56-0.04-2.34-0.11-13.73-1.28-23.86-13.5-22.57-27.22 2.69-28.73-3.44-53.45-18.2-73.48-11.01-14.93-23.07-21.72-23.62-22.02-5.89-3.08-10.24-8.26-12.25-14.61-2.02-6.37-1.43-13.14 1.64-19.06 4.32-8.32 12.82-13.49 22.2-13.49 3.98 0 7.96 0.97 11.5 2.81 2.12 1.1 21.22 11.41 38.86 34.19 1.67 2.16 3.3 4.4 4.86 6.68 12.29-30.81 43.48-47.75 88.1-47.75 11.95 0 20.32 1.31 20.67 1.36 0.34 0.05 0.68 0.13 1.01 0.21 57.99 15.48 91.64 49.89 109.65 76.04 19.56 28.39 25.36 53.13 25.59 54.17 10.65 48.19-2.11 82.67-14.69 103.11-4.62 7.51-11.82 11.81-19.75 11.81z" fill="#BAD0AB" p-id="1065"></path><path d="M622.9 136.6c11.3 0 19.1 1.24 19.1 1.24 106.56 28.44 128.07 122.77 128.07 122.77 9.86 44.62-1.64 76.44-13.46 95.65-2.94 4.78-7.11 7.05-11.24 7.05-5.52 0-10.97-4.07-13.33-11.65-35.08-113.13-129.28-137.98-175.81-143.43-0.37-0.04-0.73-0.06-1.08-0.06-6.1 0-10.56 6.1-8.44 12.04 0.18 0.5 0.28 0.79 0.28 0.79 4 19 5.28 27.52 2.62 56.04-0.73 7.77-7.26 13.6-14.92 13.6-0.47 0-0.94-0.02-1.41-0.07-8.25-0.77-14.31-8.08-13.54-16.33 7.13-76.2-46.55-104.98-47.09-105.27-7.35-3.82-10.22-12.87-6.4-20.22 2.67-5.14 7.9-8.09 13.33-8.09 2.33 0 4.69 0.54 6.9 1.69 0.77 0.4 18.94 9.98 35.56 31.44 1.82 2.35 3.67 4.91 5.5 7.67 1.81 2.73 4.66 4.04 7.49 4.04 3.54 0 7.04-2.04 8.46-5.89 13.7-37.16 54.84-43.02 79.41-43.02m0-19.99c-19.24 0-36.5 3.04-51.29 9.04-16.38 6.64-29.38 16.95-38.33 30.28-17.6-20.58-35.44-30.21-37.58-31.32a35.112 35.112 0 0 0-16.11-3.94c-13.13 0-25.03 7.23-31.08 18.88-8.85 17.05-2.25 38.11 14.72 47.07 2.48 1.4 42.31 24.87 36.62 85.77-1.8 19.22 12.37 36.31 31.59 38.11 1.1 0.1 2.2 0.15 3.28 0.15 8.69 0 17.03-3.22 23.48-9.07a34.93 34.93 0 0 0 11.35-22.68c2.17-23.16 1.87-34.92-0.35-48.48 19.99 3.76 44.83 11.26 68.68 26.12 35.99 22.43 61.25 56.43 75.09 101.04 4.85 15.63 17.57 25.73 32.43 25.73 11.32 0 21.88-6.19 28.27-16.57 13.55-22.02 27.32-59.05 15.96-110.45 0-0.04-0.02-0.09-0.03-0.13-0.25-1.12-6.47-27.67-27.11-57.62-12.07-17.52-26.69-32.83-43.44-45.48-20.87-15.77-45.05-27.39-71.86-34.55-0.67-0.18-1.34-0.32-2.02-0.43-0.96-0.15-9.72-1.49-22.23-1.49z" fill="#88A86F" p-id="1066"></path><path d="M495.84 292.34c-16.82 1.27-33.73 1.76-50.43 3.95-53.25 7-100.5 26.15-132.22 72.14-23.5 34.08-38.77 71.95-45.96 112.91-7.79 44.42-4.97 88.91-1.25 133.44 2.38 28.51 2.77 56.67-6.35 84.67-6.9 21.16-12.52 43.17-15.11 65.23-6.71 57.3 22.04 99.41 77.38 115.81 36.46 10.81 73.77 12 110.99 5.5 81.7-14.28 145.63-58.27 194.7-123.35 67.17-89.09 92.27-190.91 80.33-300.99-8.1-74.62-46.5-128.88-119.62-154.56-29.86-10.49-60.79-14.68-92.47-14.74z" fill="#F9AF5F" p-id="1067"></path><path d="M388.05 899.96c-23.69 0-46.76-3.3-68.98-9.89-29.5-8.75-52.82-24.85-67.42-46.58-14.72-21.9-20.62-49.56-17.05-79.98 2.4-20.49 7.48-42.46 15.53-67.16 8.84-27.13 8.06-54.83 5.9-80.73-3.82-45.78-6.59-90.62 1.36-136 7.47-42.61 23.48-81.93 47.57-116.86 15.88-23.02 36.65-41.16 61.73-53.92 21.89-11.14 47.21-18.48 77.41-22.45 11.8-1.55 23.73-2.28 35.26-2.98 5.17-0.31 10.51-0.64 15.72-1.03l0.39-0.03h0.39c35.31 0.07 66.64 5.07 95.76 15.3 37.67 13.23 67.57 34.2 88.85 62.33 20.51 27.11 33.09 60.95 37.39 100.59 12.52 115.41-15.16 219.07-82.28 308.09-53.04 70.35-120.66 113.14-200.96 127.18-15.74 2.75-31.28 4.13-46.57 4.13zM496.2 302.34c-5.23 0.39-10.51 0.71-15.62 1.02-11.19 0.68-22.76 1.38-33.87 2.84-58.86 7.74-98.67 29.32-125.29 67.9-22.45 32.54-37.37 69.2-44.34 108.96-7.55 43.02-4.84 86.46-1.13 130.88 2.34 27.99 3.13 58.1-6.81 88.6-7.64 23.43-12.44 44.13-14.68 63.29-3.04 25.98 1.6 48.36 13.79 66.5 12.15 18.07 31.16 31.05 56.5 38.56 33.56 9.95 69.37 11.71 106.42 5.23 75.15-13.14 138.55-53.35 188.44-119.52 63.96-84.83 90.33-183.71 78.37-293.89-7.97-73.48-45.99-122.67-112.99-146.21-26.87-9.44-55.92-14.07-88.79-14.17z" fill="#DB7B1B" p-id="1068"></path><path d="M414.41 801.42c-6.91 0-13.03-4.96-14.27-12.01-1.38-7.89 3.9-15.4 11.79-16.78 52.81-9.23 97.42-37.56 132.58-84.19 4.82-6.39 13.91-7.67 20.31-2.85 6.39 4.82 7.67 13.91 2.85 20.31-39.73 52.7-90.45 84.76-150.74 95.3-0.84 0.15-1.69 0.22-2.51 0.22z" fill="#FFFFFF" p-id="1069"></path></svg>